<?xml version="1.0" encoding="UTF-8" standalone="no"?>
<svg
   xmlns:dc="http://purl.org/dc/elements/1.1/"
   xmlns:cc="http://creativecommons.org/ns#"
   xmlns:rdf="http://www.w3.org/1999/02/22-rdf-syntax-ns#"
   xmlns:svg="http://www.w3.org/2000/svg"
   xmlns="http://www.w3.org/2000/svg"
   xmlns:sodipodi="http://sodipodi.sourceforge.net/DTD/sodipodi-0.dtd"
   xmlns:inkscape="http://www.inkscape.org/namespaces/inkscape"
   sodipodi:docname="app_icon_foreground.svg"
   inkscape:version="1.0beta2 (2b71d25, 2019-12-03)"
   id="svg101"
   version="1.1"
   viewBox="0 0 28.574999 28.575001"
   height="108"
   width="108">
  <defs
     id="defs95" />
  <sodipodi:namedview
     inkscape:window-maximized="0"
     inkscape:window-y="23"
     inkscape:window-x="0"
     inkscape:window-height="1032"
     inkscape:window-width="1600"
     units="px"
     showgrid="false"
     inkscape:document-rotation="0"
     inkscape:current-layer="layer1"
     inkscape:document-units="px"
     inkscape:cy="70"
     inkscape:cx="64.409738"
     inkscape:zoom="4"
     inkscape:pageshadow="2"
     inkscape:pageopacity="0.0"
     borderopacity="1.0"
     bordercolor="#666666"
     pagecolor="#ffffff"
     id="base" />
  <metadata
     id="metadata98">
    <rdf:RDF>
      <cc:Work
         rdf:about="">
        <dc:format>image/svg+xml</dc:format>
        <dc:type
           rdf:resource="http://purl.org/dc/dcmitype/StillImage" />
        <dc:title></dc:title>
      </cc:Work>
    </rdf:RDF>
  </metadata>
  <g
     style="display:none"
     id="layer1"
     inkscape:groupmode="layer"
     inkscape:label="mask">
    <circle
       r="8.7312498"
       cy="14.122136"
       cx="14.419792"
       id="path103"
       style="fill:none;stroke:#000000;stroke-width:0.132292;stroke-miterlimit:4;stroke-dasharray:none;stroke-opacity:1" />
  </g>
  <g
     inkscape:label="icon"
     id="layer2"
     inkscape:groupmode="layer">
    <path
       style="stroke-width:0.658142;fill:#000080"
       inkscape:connector-curvature="0"
       d="M 11.822065,10.120312 9.8737703,12.788195 H 8.5749057 c -0.7208706,0 -1.2988644,0.593604 -1.2988644,1.33394 v 2.000911 h 1.2988644 c 0,1.107173 0.8702392,2.000912 1.9482943,2.000912 1.078056,0 1.948296,-0.893739 1.948296,-2.000912 h 3.89659 c 0,1.107173 0.870239,2.000912 1.948295,2.000912 1.078056,0 1.948296,-0.893739 1.948296,-2.000912 h 1.298865 v -2.000911 c 0,-0.740336 -0.577997,-1.33394 -1.298865,-1.33394 l -1.948296,-2.667883 h -6.494316 m 3.571873,1.000455 h 2.43537 l 1.227426,1.667428 h -3.662796 v -1.667428 m -0.974148,0 v 1.667428 h -3.338077 l 1.227425,-1.667428 h 2.110652 m 3.896591,4.001823 c 0.539028,0 0.974148,0.446871 0.974148,1.000456 0,0.553588 -0.43512,1.000456 -0.974148,1.000456 -0.539028,0 -0.974147,-0.446868 -0.974147,-1.000456 0,-0.553585 0.435119,-1.000456 0.974147,-1.000456 m -7.793181,0 c 0.539028,0 0.974149,0.446871 0.974149,1.000456 0,0.553588 -0.435121,1.000456 -0.974149,1.000456 -0.5390277,0 -0.9741469,-0.446868 -0.9741469,-1.000456 0,-0.553585 0.4351192,-1.000456 0.9741469,-1.000456 z"
       id="path1001" />
  </g>
</svg>
