<?xml version="1.0" encoding="UTF-8" standalone="no"?>
<svg
   xmlns:dc="http://purl.org/dc/elements/1.1/"
   xmlns:cc="http://creativecommons.org/ns#"
   xmlns:rdf="http://www.w3.org/1999/02/22-rdf-syntax-ns#"
   xmlns:svg="http://www.w3.org/2000/svg"
   xmlns="http://www.w3.org/2000/svg"
   xmlns:sodipodi="http://sodipodi.sourceforge.net/DTD/sodipodi-0.dtd"
   xmlns:inkscape="http://www.inkscape.org/namespaces/inkscape"
   inkscape:export-ydpi="96"
   inkscape:export-xdpi="96"
   inkscape:export-filename="/Users/AlexLee/Documents/Dev/projects/CarLog/src/logo/car-log-appicon-foreground.png"
   version="1.1"
   width="108"
   height="108"
   viewBox="0 0 108 108"
   id="svg12"
   sodipodi:docname="car-log-appicon-foreground.svg"
   inkscape:version="1.0beta2 (2b71d25, 2019-12-03)">
  <metadata
     id="metadata18">
    <rdf:RDF>
      <cc:Work
         rdf:about="">
        <dc:format>image/svg+xml</dc:format>
        <dc:type
           rdf:resource="http://purl.org/dc/dcmitype/StillImage" />
        <dc:title></dc:title>
      </cc:Work>
    </rdf:RDF>
  </metadata>
  <defs
     id="defs16" />
  <sodipodi:namedview
     pagecolor="#ffffff"
     bordercolor="#666666"
     inkscape:document-rotation="0"
     borderopacity="1"
     objecttolerance="10"
     gridtolerance="10"
     guidetolerance="10"
     inkscape:pageopacity="1"
     inkscape:pageshadow="2"
     inkscape:window-width="1766"
     inkscape:window-height="973"
     id="namedview14"
     showgrid="true"
     inkscape:zoom="7.1388889"
     inkscape:cx="36.422725"
     inkscape:cy="54"
     inkscape:window-x="151"
     inkscape:window-y="23"
     inkscape:window-maximized="0"
     inkscape:current-layer="layer1"
     inkscape:pagecheckerboard="false" />
  <g
     inkscape:groupmode="layer"
     id="layer4"
     inkscape:label="mask"
     style="display:none">
    <circle
       style="fill:#ffffff;fill-opacity:1;stroke:#000000;stroke-width:0.2;stroke-miterlimit:4;stroke-dasharray:none;stroke-opacity:1"
       id="path61"
       cx="53.731518"
       cy="53.653698"
       r="33" />
  </g>
  <g
     inkscape:groupmode="layer"
     id="layer1"
     inkscape:label="icon"
     style="display:inline">
    <path
       id="path155"
       d="m 42.791299,26.498054 -8.18182,10.90909 h -5.454544 c -3.027274,0 -5.454546,2.427273 -5.454546,5.454547 v 8.181817 h 5.454546 c 0,4.527274 3.654544,8.181818 8.181817,8.181818 4.527274,0 8.181819,-3.654544 8.181819,-8.181818 h 16.363636 c 0,4.527274 3.654545,8.181818 8.181819,8.181818 4.527273,0 8.181817,-3.654544 8.181817,-8.181818 h 5.454546 v -8.181817 c 0,-3.027274 -2.427272,-5.454547 -5.454546,-5.454547 L 70.064026,26.498054 H 42.791299 m 15,4.09091 h 10.227272 l 5.154546,6.81818 H 57.791299 v -6.81818 m -4.09091,0 v 6.81818 H 39.682207 l 5.154545,-6.81818 h 8.863637 M 70.064026,46.9526 c 2.263635,0 4.090909,1.827272 4.090909,4.090908 0,2.263636 -1.827274,4.090909 -4.090909,4.090909 -2.263637,0 -4.090909,-1.827273 -4.090909,-4.090909 0,-2.263636 1.827272,-4.090908 4.090909,-4.090908 m -32.727274,0 c 2.263637,0 4.090909,1.827272 4.090909,4.090908 0,2.263636 -1.827272,4.090909 -4.090909,4.090909 -2.263635,0 -4.090909,-1.827273 -4.090909,-4.090909 0,-2.263636 1.827274,-4.090908 4.090909,-4.090908 z"
       inkscape:connector-curvature="0"
       style="fill:#0000ff;stroke-width:2.72728" />
    <g
       style="font-style:normal;font-variant:normal;font-weight:normal;font-stretch:normal;font-size:12px;line-height:1.25;font-family:Verdana;-inkscape-font-specification:Verdana;display:inline;fill:#0000ff"
       id="text1000"
       aria-label="CAR LOG">
      <path
         inkscape:connector-curvature="0"
         id="path75"
         d="m 33.925722,71.227119 q -0.322266,0.140625 -0.585937,0.263672 -0.257813,0.123047 -0.679688,0.257813 -0.357422,0.111328 -0.779297,0.1875 -0.416015,0.08203 -0.919922,0.08203 -0.949218,0 -1.728515,-0.263672 -0.773438,-0.269531 -1.347657,-0.83789 -0.5625,-0.556641 -0.878906,-1.41211 -0.316406,-0.861328 -0.316406,-1.998047 0,-1.078125 0.304687,-1.927734 0.304688,-0.849609 0.878907,-1.435547 0.55664,-0.568359 1.341797,-0.867187 0.791015,-0.298829 1.751953,-0.298829 0.703125,0 1.40039,0.169922 0.703125,0.169922 1.558594,0.597657 v 1.376953 h -0.08789 q -0.720703,-0.603516 -1.429687,-0.878907 -0.708984,-0.27539 -1.517578,-0.27539 -0.66211,0 -1.195313,0.216797 -0.527343,0.210937 -0.943359,0.662109 -0.404297,0.439453 -0.632813,1.113281 -0.222656,0.667969 -0.222656,1.546875 0,0.919922 0.246094,1.582032 0.251953,0.662109 0.644531,1.078125 0.410156,0.433593 0.955078,0.644531 0.550782,0.205078 1.160157,0.205078 0.83789,0 1.570312,-0.287109 0.732422,-0.28711 1.371094,-0.861329 h 0.08203 z" />
      <path
         inkscape:connector-curvature="0"
         id="path77"
         d="m 42.456972,71.859932 h -1.236328 l -0.855469,-2.431641 h -3.773437 l -0.855469,2.431641 h -1.177734 l 3.175781,-8.724609 h 1.546875 z M 40.007753,68.432198 38.478456,64.148994 36.9433,68.432198 Z" />
      <path
         inkscape:connector-curvature="0"
         id="path79"
         d="m 50.999941,71.859932 h -1.50586 l -2.917968,-3.46875 h -1.634766 v 3.46875 h -1.160156 v -8.724609 h 2.443359 q 0.791016,0 1.31836,0.105468 0.527343,0.09961 0.949218,0.363282 0.47461,0.298828 0.738282,0.755859 0.269531,0.451172 0.269531,1.148437 0,0.94336 -0.47461,1.582032 -0.474609,0.632812 -1.30664,0.955078 z M 48.28705,65.590401 q 0,-0.375 -0.134765,-0.66211 -0.128907,-0.292968 -0.433594,-0.492187 -0.251953,-0.169922 -0.597656,-0.234375 -0.345704,-0.07031 -0.814454,-0.07031 h -1.365234 v 3.292969 h 1.171875 q 0.550781,0 0.960938,-0.09375 0.410156,-0.09961 0.697265,-0.363281 0.263672,-0.246094 0.386719,-0.5625 0.128906,-0.322266 0.128906,-0.814453 z" />
      <path
         inkscape:connector-curvature="0"
         id="path81"
         d="m 61.863222,71.859932 h -5.519531 v -8.724609 h 1.160156 v 7.693359 h 4.359375 z" />
      <path
         inkscape:connector-curvature="0"
         id="path83"
         d="m 69.527285,64.137276 q 0.533203,0.585937 0.814453,1.435547 0.287109,0.849609 0.287109,1.927734 0,1.078125 -0.292969,1.933594 -0.287109,0.849609 -0.808593,1.417968 -0.539063,0.591797 -1.277344,0.890625 -0.732422,0.298829 -1.675781,0.298829 -0.919922,0 -1.675782,-0.304688 -0.75,-0.304687 -1.277343,-0.884766 -0.527344,-0.580078 -0.814454,-1.423828 -0.28125,-0.84375 -0.28125,-1.927734 0,-1.066406 0.28125,-1.910156 0.28125,-0.84961 0.820313,-1.453125 0.515625,-0.574219 1.277344,-0.878907 0.767578,-0.304687 1.669922,-0.304687 0.9375,0 1.68164,0.310547 0.75,0.304687 1.271485,0.873047 z m -0.105469,3.363281 q 0,-1.699219 -0.761719,-2.619141 -0.761719,-0.925781 -2.080078,-0.925781 -1.330078,0 -2.091797,0.925781 -0.755859,0.919922 -0.755859,2.619141 0,1.716797 0.773437,2.630859 0.773438,0.908203 2.074219,0.908203 1.300781,0 2.068359,-0.908203 0.773438,-0.914062 0.773438,-2.630859 z" />
      <path
         inkscape:connector-curvature="0"
         id="path85"
         d="m 79.746035,71.215401 q -0.714844,0.328125 -1.564454,0.574218 -0.84375,0.240235 -1.634765,0.240235 -1.019531,0 -1.869141,-0.28125 -0.849609,-0.28125 -1.447265,-0.84375 -0.603516,-0.56836 -0.931641,-1.417969 -0.328125,-0.855469 -0.328125,-1.998047 0,-2.091797 1.21875,-3.298828 1.224609,-1.212891 3.357422,-1.212891 0.74414,0 1.517578,0.181641 0.779297,0.175781 1.675781,0.603516 v 1.376953 h -0.105469 q -0.18164,-0.140625 -0.527343,-0.369141 -0.345703,-0.228515 -0.679688,-0.380859 -0.404297,-0.181641 -0.919922,-0.298828 -0.509765,-0.123047 -1.160156,-0.123047 -1.464844,0 -2.320312,0.943359 -0.84961,0.9375 -0.84961,2.542969 0,1.693359 0.890625,2.636719 0.890625,0.9375 2.425781,0.9375 0.5625,0 1.119141,-0.111328 0.5625,-0.111329 0.984375,-0.28711 V 68.490791 H 76.259706 V 67.47126 h 3.486329 z" />
    </g>
  </g>
</svg>
